<svg width="104" height="104" xmlns="http://www.w3.org/2000/svg" xmlns:xlink="http://www.w3.org/1999/xlink"><defs><path d="M.632 33.037L14.449 58.53c.83 1.53 2.35 2.47 3.994 2.47H57.66c1.658 0 3.19-.957 4.014-2.509l13.715-25.829a5.323 5.323 0 00-.022-4.994L61.68 2.467C60.851.939 59.332 0 57.69 0H18.445C16.8 0 15.278.942 14.45 2.473L.63 28.01a5.322 5.322 0 00.002 5.027z" id="a"/></defs><g fill="none" fill-rule="evenodd"><rect fill="#006FFF" width="104" height="104" rx="4"/><g transform="translate(14 22)"><mask id="b" fill="#fff"><use xlink:href="#a"/></mask><path d="M15.65 0l6.546 11.978-10.023 18.498L22.196 48.88 15.65 60.84-.765 30.476 15.65 0zm44.135 0L76.2 30.476 59.925 60.839 53.24 48.88l10.023-18.404L53.24 11.978 59.785 0z" fill="#FFF" fill-rule="nonzero" opacity=".5" mask="url(#b)"/><path d="M48.687 39.215L60.315 61H50.49c-1.908 0-3.67-1.106-4.613-2.895l-3.36-6.38 6.17-12.51zM25.638 0c1.908 0 3.669 1.105 4.612 2.895l3.394 6.44-6.171 12.51L15.813 0h9.825zm-9.826 61l28.6-57.965C45.334 1.167 47.135 0 49.097 0h11.09L31.589 57.965C30.666 59.833 28.865 61 26.903 61h-11.09z" fill="#FFF" fill-rule="nonzero" mask="url(#b)"/></g></g></svg>